<svg width="254" height="84" viewBox="0 0 254 84" fill="none" xmlns="http://www.w3.org/2000/svg">
<path d="M192.82 68V60.5008H189.093C187.512 60.5008 186.015 60.2199 184.604 59.6582C183.192 59.0403 181.95 58.2257 180.877 57.2146C179.86 56.1473 179.042 54.9115 178.42 53.5071C177.856 52.1028 177.573 50.6142 177.573 49.0413V45.2496H192.82V37.7504H177.573V15H170.035V49.0413C170.035 51.6253 170.515 54.0689 171.475 56.372C172.491 58.6751 173.875 60.6974 175.625 62.4388C177.376 64.1802 179.409 65.5564 181.724 66.5676C184.039 67.5225 186.495 68 189.093 68H192.82Z" fill="#565656"/>
<path d="M127.208 30.0714L107.388 67.9887L87.6524 30.0714H96.1226C96.9132 31.5881 97.8167 33.3295 98.8331 35.2956C99.8495 37.2055 100.866 39.1716 101.882 41.1938C102.899 43.1599 103.887 45.0698 104.847 46.9235C105.863 48.7773 106.71 50.3782 107.388 51.7264C108.235 50.0974 109.195 48.2436 110.268 46.1652C111.397 44.0306 112.498 41.9241 113.571 39.8456C114.644 37.7672 115.632 35.8573 116.536 34.1159C117.439 32.3183 118.145 30.9702 118.654 30.0714H127.208Z" fill="#EE2A7B"/>
<path fill-rule="evenodd" clip-rule="evenodd" d="M68.0581 30.1499C70.7121 30.1499 73.1685 30.6555 75.4272 31.6666C77.7424 32.6216 79.747 33.9698 81.4411 35.7112C83.1916 37.3964 84.5468 39.3905 85.5068 41.6937C86.5232 43.9406 87.0315 46.3842 87.0315 49.0243V67.983H68.0581C65.4605 67.983 63.0042 67.5055 60.689 66.5506C58.3738 65.5395 56.3409 64.1632 54.5904 62.4218C52.8398 60.6804 51.4564 58.6582 50.4399 56.355C49.48 54.0519 49 51.6083 49 49.0243C49 46.3842 49.48 43.9406 50.4399 41.6937C51.4564 39.3905 52.8398 37.3964 54.5904 35.7112C56.3409 33.9698 58.3738 32.6216 60.689 31.6666C63.0042 30.6555 65.4605 30.1499 68.0581 30.1499ZM79.4929 60.4838V49.0243C79.4929 47.4515 79.1824 45.991 78.5612 44.6428C77.9965 43.2384 77.1777 42.0307 76.1048 41.0196C75.0884 39.9523 73.8743 39.1378 72.4626 38.576C71.1074 37.9581 69.6392 37.6491 68.0581 37.6491C66.477 37.6491 64.9806 37.9581 63.5688 38.576C62.1571 39.1378 60.9148 39.9523 59.8419 41.0196C58.8255 42.0307 58.0067 43.2384 57.3856 44.6428C56.8209 45.991 56.5385 47.4515 56.5385 49.0243C56.5385 50.5972 56.8209 52.0858 57.3856 53.4902C58.0067 54.8945 58.8255 56.1303 59.8419 57.1976C60.9148 58.2088 62.1571 59.0233 63.5688 59.6412C64.9806 60.2029 66.477 60.4838 68.0581 60.4838H79.4929Z" fill="#565656"/>
<path d="M149.074 37.6661V30.1669H145.841C143.244 30.1669 140.788 30.6725 138.472 31.6836C136.157 32.6386 134.124 33.9868 132.374 35.7281C130.623 37.4134 129.24 39.4075 128.223 41.7107C127.263 43.9576 126.783 46.4012 126.783 49.0413V68H134.407V49.0413C134.407 47.4685 134.689 46.008 135.254 44.6598C135.875 43.2554 136.694 42.0477 137.71 41.0366C138.783 39.9693 139.997 39.1547 141.352 38.593C142.764 37.9751 144.26 37.6661 145.841 37.6661H149.074Z" fill="#EE2A7B"/>
<path d="M155.796 30.1669H163.249V37.5668H155.796V30.1669Z" fill="#565656"/>
<path d="M155.796 44.9728V68H163.249V44.9728H155.796Z" fill="#565656"/>
<path d="M206 30.1669H199.426V37.5668H206V30.1669Z" fill="#565656"/>
<path d="M206 44.9728V68H199.426V44.9728H206Z" fill="#565656"/>
</svg>
