<?xml version="1.0" encoding="UTF-8"?>
<svg xmlns="http://www.w3.org/2000/svg" xmlns:xlink="http://www.w3.org/1999/xlink" width="35px" height="35px" viewBox="0 0 35 35" version="1.1">
<g id="surface1">
<path style=" stroke:none;fill-rule:nonzero;fill:rgb(100%,75.686275%,2.745098%);fill-opacity:1;" d="M 31.800781 14.644531 L 30.625 14.644531 L 30.625 14.582031 L 17.5 14.582031 L 17.5 20.417969 L 25.742188 20.417969 C 24.539062 23.8125 21.308594 26.25 17.5 26.25 C 12.667969 26.25 8.75 22.332031 8.75 17.5 C 8.75 12.667969 12.667969 8.75 17.5 8.75 C 19.730469 8.75 21.761719 9.589844 23.304688 10.964844 L 27.429688 6.839844 C 24.824219 4.414062 21.339844 2.917969 17.5 2.917969 C 9.445312 2.917969 2.917969 9.445312 2.917969 17.5 C 2.917969 25.554688 9.445312 32.082031 17.5 32.082031 C 25.554688 32.082031 32.082031 25.554688 32.082031 17.5 C 32.082031 16.523438 31.984375 15.566406 31.800781 14.644531 Z M 31.800781 14.644531 "/>
<path style=" stroke:none;fill-rule:nonzero;fill:rgb(100%,23.921569%,0%);fill-opacity:1;" d="M 4.597656 10.710938 L 9.390625 14.226562 C 10.6875 11.015625 13.824219 8.75 17.5 8.75 C 19.730469 8.75 21.761719 9.589844 23.304688 10.964844 L 27.429688 6.839844 C 24.824219 4.414062 21.339844 2.917969 17.5 2.917969 C 11.898438 2.917969 7.039062 6.078125 4.597656 10.710938 Z M 4.597656 10.710938 "/>
<path style=" stroke:none;fill-rule:nonzero;fill:rgb(29.803922%,68.627451%,31.372549%);fill-opacity:1;" d="M 17.5 32.082031 C 21.265625 32.082031 24.691406 30.640625 27.277344 28.296875 L 22.765625 24.476562 C 21.300781 25.585938 19.480469 26.25 17.5 26.25 C 13.707031 26.25 10.484375 23.832031 9.273438 20.457031 L 4.515625 24.121094 C 6.929688 28.84375 11.832031 32.082031 17.5 32.082031 Z M 17.5 32.082031 "/>
<path style=" stroke:none;fill-rule:nonzero;fill:rgb(9.803922%,46.27451%,82.352941%);fill-opacity:1;" d="M 31.800781 14.644531 L 30.625 14.644531 L 30.625 14.582031 L 17.5 14.582031 L 17.5 20.417969 L 25.742188 20.417969 C 25.164062 22.046875 24.113281 23.453125 22.761719 24.480469 C 22.761719 24.476562 22.761719 24.476562 22.765625 24.476562 L 27.277344 28.296875 C 26.957031 28.585938 32.082031 24.792969 32.082031 17.5 C 32.082031 16.523438 31.984375 15.566406 31.800781 14.644531 Z M 31.800781 14.644531 "/>
</g>
</svg>
