<?xml version="1.0" encoding="UTF-8"?>
<svg xmlns="http://www.w3.org/2000/svg" xmlns:xlink="http://www.w3.org/1999/xlink" width="105px" height="35px" viewBox="0 0 105 35" version="1.1">
<g id="surface1">
<path style=" stroke:none;fill-rule:nonzero;fill:rgb(41.176471%,70.588235%,5.882353%);fill-opacity:1;" d="M 96.269531 29.582031 C 90.710938 29.621094 85.449219 29.664062 83.984375 29.53125 C 81.015625 29.273438 79.03125 27.324219 78.804688 24.453125 C 78.644531 22.574219 78.644531 21.011719 78.792969 19.527344 C 79.0625 16.738281 81.390625 14.074219 83.984375 13.949219 C 84.914062 13.898438 87.398438 13.90625 91.898438 13.921875 L 105 13.949219 L 105 8.492188 C 105 8.492188 94.566406 8.480469 91.429688 8.46875 C 87.214844 8.449219 85.097656 8.445312 83.753906 8.492188 C 80.804688 8.605469 78.328125 9.660156 76.40625 11.625 C 74.582031 13.476562 73.496094 16.421875 73.335938 19.40625 C 73.246094 21.011719 73.214844 23.117188 73.335938 24.367188 C 73.640625 27.574219 74.671875 30.089844 76.40625 31.855469 C 78.257812 33.75 81.078125 34.949219 83.757812 34.984375 C 85.957031 35.011719 105 34.984375 105 34.984375 L 105 29.53125 C 105 29.53125 99.214844 29.554688 96.269531 29.582031 Z M 37.128906 8.785156 L 37.128906 14.234375 L 50.054688 14.234375 L 50.054688 34.890625 L 55.511719 34.890625 L 55.511719 14.234375 L 68.4375 14.234375 L 68.4375 8.785156 Z M 31.464844 19.09375 C 31.421875 16.15625 30.394531 13.636719 28.390625 11.601562 C 26.308594 9.472656 23.125 8.585938 21.042969 8.476562 C 19.230469 8.375 12.09375 8.40625 10.417969 8.476562 C 8.058594 8.578125 6.339844 9.28125 5.476562 9.929688 C 5.46875 9.933594 5.457031 9.929688 5.457031 9.917969 L 5.457031 0.00390625 L 0 0.00390625 L 0 34.988281 L 5.449219 34.988281 C 5.449219 34.988281 5.34375 20.667969 5.464844 19.109375 C 5.679688 16.335938 7.777344 14.160156 10.445312 13.921875 C 12.585938 13.738281 19.015625 13.789062 21.03125 13.929688 C 23.800781 14.117188 25.84375 16.292969 26.003906 19.21875 C 26.054688 20.292969 26 34.984375 26 34.984375 L 31.460938 34.984375 C 31.464844 34.984375 31.476562 20.351562 31.464844 19.09375 Z M 31.464844 19.09375 "/>
</g>
</svg>
