<?xml version="1.0" encoding="UTF-8"?>
<svg xmlns="http://www.w3.org/2000/svg" xmlns:xlink="http://www.w3.org/1999/xlink" width="35px" height="35px" viewBox="0 0 35 35" version="1.1">
<g id="surface1">
<path style=" stroke:none;fill-rule:evenodd;fill:rgb(0%,30.980392%,54.117647%);fill-opacity:1;" d="M 17.5 0 C 27.121094 0 35.011719 7.855469 35.011719 17.488281 C 35.011719 27.144531 27.117188 35.011719 17.5 35.011719 C 7.855469 35.011719 0 27.144531 0 17.488281 C 0 7.855469 7.855469 0 17.5 0 M 15.078125 32.625 L 22.550781 19.671875 L 17.5 19.671875 L 20.003906 15.324219 L 31.859375 15.3125 L 29.355469 19.683594 L 25.058594 19.671875 L 17.496094 32.824219 C 25.921875 32.824219 32.824219 25.921875 32.824219 17.484375 C 32.824219 9.089844 25.921875 2.199219 17.496094 2.199219 C 16.878906 2.199219 16.261719 2.234375 15.695312 2.308594 L 8.164062 15.324219 L 17.496094 15.324219 L 14.96875 19.671875 L 3.125 19.671875 L 12.78125 2.953125 C 6.644531 4.941406 2.1875 10.71875 2.1875 17.488281 C 2.1875 25.105469 7.78125 31.453125 15.078125 32.625 "/>
</g>
</svg>
