<?xml version="1.0" encoding="UTF-8"?>
<svg xmlns="http://www.w3.org/2000/svg" xmlns:xlink="http://www.w3.org/1999/xlink" width="35px" height="35px" viewBox="0 0 35 35" version="1.1">
<defs>
<linearGradient id="linear0" gradientUnits="userSpaceOnUse" x1="42.3043" y1="24.75" x2="13.5329" y2="24.75" gradientTransform="matrix(0.729167,0,0,0.729167,0,0)">
<stop offset="0" style="stop-color:rgb(0%,50.588235%,98.431373%);stop-opacity:1;"/>
<stop offset="0.9947" style="stop-color:rgb(0%,39.215686%,88.235294%);stop-opacity:1;"/>
</linearGradient>
<linearGradient id="linear1" gradientUnits="userSpaceOnUse" x1="7.6352" y1="32.8696" x2="7.6352" y2="13.0121" gradientTransform="matrix(0.729167,0,0,0.729167,0,0)">
<stop offset="0" style="stop-color:rgb(0%,50.588235%,98.431373%);stop-opacity:1;"/>
<stop offset="0.9947" style="stop-color:rgb(0%,39.215686%,88.235294%);stop-opacity:1;"/>
</linearGradient>
<filter id="alpha" filterUnits="objectBoundingBox" x="0%" y="0%" width="100%" height="100%">
  <feColorMatrix type="matrix" in="SourceGraphic" values="0 0 0 0 1 0 0 0 0 1 0 0 0 0 1 0 0 0 1 0"/>
</filter>
<mask id="mask0">
  <g filter="url(#alpha)">
<rect x="0" y="0" width="35" height="35" style="fill:rgb(0%,0%,0%);fill-opacity:0.0509804;stroke:none;"/>
  </g>
</mask>
<clipPath id="clip1">
  <rect x="0" y="0" width="35" height="35"/>
</clipPath>
<g id="surface5" clip-path="url(#clip1)">
<path style=" stroke:none;fill-rule:nonzero;fill:rgb(0%,0%,0%);fill-opacity:1;" d="M 15.800781 14.78125 L 15.582031 15.109375 L 15.371094 15.445312 C 15.886719 16.195312 16.480469 17.097656 17.097656 18.132812 L 17.253906 17.863281 C 17.265625 17.835938 17.289062 17.800781 17.308594 17.769531 C 17.375 17.644531 17.449219 17.523438 17.515625 17.398438 C 16.910156 16.40625 16.324219 15.523438 15.800781 14.78125 Z M 18.183594 11.308594 C 18.105469 11.410156 18.03125 11.511719 17.960938 11.617188 C 18.492188 12.277344 19.03125 13.03125 19.601562 13.875 C 19.671875 13.757812 19.746094 13.648438 19.820312 13.539062 C 19.847656 13.496094 19.871094 13.460938 19.898438 13.425781 C 19.941406 13.351562 19.992188 13.285156 20.039062 13.21875 C 19.484375 12.402344 18.945312 11.667969 18.410156 11.011719 C 18.339844 11.105469 18.257812 11.207031 18.183594 11.308594 Z M 18.183594 11.308594 "/>
</g>
<mask id="mask1">
  <g filter="url(#alpha)">
<rect x="0" y="0" width="35" height="35" style="fill:rgb(0%,0%,0%);fill-opacity:0.0705882;stroke:none;"/>
  </g>
</mask>
<clipPath id="clip2">
  <rect x="0" y="0" width="35" height="35"/>
</clipPath>
<g id="surface8" clip-path="url(#clip2)">
<path style=" stroke:none;fill-rule:nonzero;fill:rgb(0%,0%,0%);fill-opacity:1;" d="M 15.800781 14.78125 L 15.582031 15.109375 C 16.101562 15.851562 16.683594 16.742188 17.308594 17.769531 C 17.375 17.644531 17.449219 17.523438 17.515625 17.398438 C 16.910156 16.40625 16.324219 15.523438 15.800781 14.78125 Z M 17.960938 11.617188 C 18.492188 12.277344 19.03125 13.03125 19.601562 13.875 C 19.671875 13.757812 19.746094 13.648438 19.820312 13.539062 C 19.257812 12.710938 18.710938 11.964844 18.183594 11.308594 C 18.105469 11.410156 18.03125 11.511719 17.960938 11.617188 Z M 17.960938 11.617188 "/>
</g>
</defs>
<g id="surface1">
<path style=" stroke:none;fill-rule:nonzero;fill:rgb(0%,50.588235%,98.431373%);fill-opacity:1;" d="M 34.269531 21.410156 L 32.671875 22.621094 L 31.078125 21.511719 C 31.078125 21.394531 31.078125 21.269531 31.070312 21.144531 C 31.070312 21.027344 31.070312 20.90625 31.0625 20.78125 C 30.960938 17.910156 30.230469 14.832031 28.773438 12.578125 C 27.648438 10.851562 26.214844 10.027344 24.609375 10.027344 C 22.925781 10.027344 21.554688 11.03125 20.039062 13.21875 C 19.992188 13.285156 19.941406 13.351562 19.898438 13.425781 C 19.871094 13.460938 19.847656 13.496094 19.820312 13.539062 C 19.746094 13.648438 19.671875 13.757812 19.601562 13.875 C 18.945312 14.898438 18.257812 16.085938 17.515625 17.398438 C 17.449219 17.523438 17.375 17.644531 17.308594 17.769531 C 17.289062 17.800781 17.265625 17.835938 17.253906 17.863281 L 17.097656 18.132812 L 16.195312 19.730469 C 14.074219 23.488281 13.535156 24.347656 12.476562 25.753906 C 10.617188 28.226562 9.027344 29.167969 6.933594 29.167969 C 4.457031 29.167969 2.878906 28.09375 1.910156 26.476562 C 1.117188 25.164062 0.730469 23.433594 0.730469 21.464844 L 4.351562 21.589844 C 4.351562 22.875 4.628906 23.851562 5.003906 24.449219 C 5.484375 25.222656 6.191406 25.519531 6.925781 25.519531 C 7.867188 25.519531 8.742188 25.324219 10.40625 23.019531 C 11.738281 21.175781 13.316406 18.59375 14.371094 16.96875 L 15.371094 15.445312 L 15.582031 15.109375 L 15.800781 14.78125 L 16.164062 14.21875 C 16.71875 13.371094 17.316406 12.476562 17.960938 11.617188 C 18.03125 11.511719 18.105469 11.410156 18.183594 11.308594 C 18.257812 11.207031 18.339844 11.105469 18.410156 11.011719 C 19.066406 10.171875 19.761719 9.390625 20.503906 8.75 C 21.851562 7.574219 23.304688 6.925781 24.769531 6.925781 C 27.226562 6.925781 29.566406 8.347656 31.363281 11.019531 C 33.191406 13.746094 34.148438 17.144531 34.257812 20.679688 C 34.261719 20.796875 34.261719 20.917969 34.261719 21.042969 C 34.269531 21.167969 34.269531 21.285156 34.269531 21.410156 Z M 34.269531 21.410156 "/>
<path style=" stroke:none;fill-rule:nonzero;fill:url(#linear0);" d="M 3.585938 11.269531 C 5.246094 8.714844 7.644531 6.925781 10.394531 6.925781 C 11.984375 6.925781 13.566406 7.398438 15.21875 8.746094 C 17.027344 10.21875 18.957031 12.644531 21.359375 16.640625 L 22.222656 18.074219 C 24.300781 21.535156 25.484375 23.316406 26.179688 24.15625 C 27.070312 25.234375 27.625 25.519531 28.4375 25.519531 C 30.492188 25.519531 31.074219 23.667969 31.074219 21.507812 L 34.269531 21.410156 C 34.269531 23.667969 33.824219 25.324219 33.066406 26.632812 C 32.335938 27.902344 30.90625 29.167969 28.503906 29.167969 C 27.011719 29.167969 25.6875 28.84375 24.226562 27.464844 C 23.101562 26.410156 21.789062 24.53125 20.777344 22.84375 L 17.769531 17.824219 C 16.257812 15.308594 14.875 13.429688 14.070312 12.582031 C 13.210938 11.667969 12.144531 10.574219 10.378906 10.574219 C 8.945312 10.574219 7.6875 11.566406 6.671875 13.101562 Z M 3.585938 11.269531 "/>
<path style=" stroke:none;fill-rule:nonzero;fill:url(#linear1);" d="M 10.390625 10.574219 C 8.960938 10.574219 7.707031 11.566406 6.691406 13.097656 C 5.253906 15.265625 4.375 18.492188 4.375 21.59375 C 4.375 22.871094 4.371094 23.832031 4.738281 24.425781 L 1.941406 26.476562 C 1.148438 25.160156 0.730469 23.480469 0.730469 21.511719 C 0.730469 17.929688 1.71875 14.152344 3.585938 11.269531 C 5.246094 8.714844 7.660156 6.925781 10.40625 6.925781 Z M 10.390625 10.574219 "/>
<use xlink:href="#surface5" mask="url(#mask0)"/>
<use xlink:href="#surface8" mask="url(#mask1)"/>
</g>
</svg>
