<?xml version="1.0" encoding="UTF-8"?>
<svg xmlns="http://www.w3.org/2000/svg" xmlns:xlink="http://www.w3.org/1999/xlink" width="48px" height="35px" viewBox="0 0 47 35" version="1.1">
<g id="surface1">
<path style=" stroke:none;fill-rule:nonzero;fill:rgb(0%,0%,0%);fill-opacity:1;" d="M 46.671875 33.890625 C 46.671875 34.402344 46.300781 34.742188 45.863281 34.742188 L 45.863281 34.738281 C 45.414062 34.742188 45.050781 34.402344 45.050781 33.890625 C 45.050781 33.382812 45.414062 33.039062 45.863281 33.039062 C 46.300781 33.039062 46.671875 33.382812 46.671875 33.890625 Z M 47 33.890625 C 47 33.191406 46.460938 32.785156 45.863281 32.785156 C 45.261719 32.785156 44.722656 33.191406 44.722656 33.890625 C 44.722656 34.589844 45.261719 34.996094 45.863281 34.996094 C 46.460938 34.996094 47 34.589844 47 33.890625 M 45.675781 33.984375 L 45.796875 33.984375 L 46.078125 34.484375 L 46.386719 34.484375 L 46.074219 33.964844 C 46.238281 33.953125 46.371094 33.875 46.371094 33.652344 C 46.371094 33.382812 46.183594 33.292969 45.867188 33.292969 L 45.414062 33.292969 L 45.414062 34.484375 L 45.675781 34.484375 L 45.675781 33.984375 M 45.675781 33.78125 L 45.675781 33.496094 L 45.855469 33.496094 C 45.957031 33.496094 46.089844 33.503906 46.089844 33.625 C 46.089844 33.757812 46.023438 33.78125 45.90625 33.78125 L 45.675781 33.78125 M 39.34375 27.792969 L 40.761719 31.714844 L 37.882812 31.714844 Z M 37.828125 26.265625 L 34.5625 34.636719 L 36.867188 34.636719 L 37.382812 33.15625 L 41.25 33.15625 L 41.738281 34.636719 L 44.242188 34.636719 L 40.953125 26.265625 Z M 31.269531 34.640625 L 33.609375 34.640625 L 33.609375 26.265625 L 31.269531 26.265625 Z M 15.027344 26.265625 L 13.074219 32.902344 L 11.203125 26.265625 L 8.679688 26.265625 L 11.351562 34.640625 L 14.722656 34.640625 L 17.414062 26.265625 Z M 24.484375 28.089844 L 25.492188 28.089844 C 26.949219 28.089844 27.894531 28.75 27.894531 30.46875 C 27.894531 32.1875 26.949219 32.851562 25.492188 32.851562 L 24.484375 32.851562 Z M 22.164062 26.265625 L 22.164062 34.640625 L 25.957031 34.640625 C 27.980469 34.640625 28.640625 34.300781 29.351562 33.535156 C 29.855469 33 30.183594 31.828125 30.183594 30.542969 C 30.183594 29.367188 29.90625 28.316406 29.425781 27.664062 C 28.558594 26.492188 27.308594 26.265625 25.445312 26.265625 Z M 0 26.253906 L 0 34.640625 L 2.359375 34.640625 L 2.359375 28.269531 L 4.1875 28.273438 C 4.792969 28.273438 5.226562 28.425781 5.515625 28.738281 C 5.886719 29.136719 6.039062 29.78125 6.039062 30.957031 L 6.039062 34.640625 L 8.324219 34.640625 L 8.324219 30.003906 C 8.324219 26.699219 6.238281 26.253906 4.199219 26.253906 Z M 18.398438 26.265625 L 18.398438 34.640625 L 20.738281 34.640625 L 20.738281 26.265625 Z M 18.398438 26.265625 "/>
<path style=" stroke:none;fill-rule:nonzero;fill:rgb(46.666667%,72.54902%,0%);fill-opacity:1;" d="M 6.289062 9.589844 C 6.289062 9.589844 9.296875 5.101562 15.304688 4.636719 L 15.304688 3.007812 C 8.652344 3.546875 2.886719 9.246094 2.886719 9.246094 C 2.886719 9.246094 6.152344 18.789062 15.304688 19.664062 L 15.304688 17.933594 C 8.589844 17.078125 6.289062 9.589844 6.289062 9.589844 Z M 15.304688 14.488281 L 15.304688 16.074219 C 10.230469 15.160156 8.820312 9.820312 8.820312 9.820312 C 8.820312 9.820312 11.257812 7.089844 15.304688 6.648438 L 15.304688 8.386719 C 15.304688 8.386719 15.300781 8.386719 15.296875 8.386719 C 13.171875 8.128906 11.511719 10.136719 11.511719 10.136719 C 11.511719 10.136719 12.445312 13.515625 15.304688 14.488281 M 15.304688 0.00390625 L 15.304688 3.007812 C 15.5 2.992188 15.695312 2.980469 15.894531 2.972656 C 23.460938 2.714844 28.390625 9.246094 28.390625 9.246094 C 28.390625 9.246094 22.726562 16.210938 16.828125 16.210938 C 16.289062 16.210938 15.78125 16.160156 15.304688 16.074219 L 15.304688 17.933594 C 15.726562 17.988281 16.152344 18.015625 16.574219 18.015625 C 22.0625 18.015625 26.035156 15.179688 29.878906 11.824219 C 30.515625 12.339844 33.125 13.597656 33.660156 14.144531 C 30.007812 17.242188 21.488281 19.734375 16.660156 19.734375 C 16.191406 19.734375 15.746094 19.707031 15.304688 19.664062 L 15.304688 22.273438 L 36.171875 22.273438 L 36.171875 0.00390625 Z M 15.304688 6.648438 L 15.304688 4.636719 C 15.5 4.621094 15.695312 4.613281 15.894531 4.605469 C 21.335938 4.433594 24.90625 9.332031 24.90625 9.332031 C 24.90625 9.332031 21.050781 14.75 16.914062 14.75 C 16.320312 14.75 15.785156 14.652344 15.304688 14.488281 L 15.304688 8.386719 C 17.425781 8.648438 17.851562 9.59375 19.125 11.738281 L 21.957031 9.324219 C 21.957031 9.324219 19.890625 6.582031 16.402344 6.582031 C 16.023438 6.582031 15.664062 6.609375 15.304688 6.648438 "/>
</g>
</svg>
