<?xml version="1.0" encoding="UTF-8"?>
<svg xmlns="http://www.w3.org/2000/svg" xmlns:xlink="http://www.w3.org/1999/xlink" width="40px" height="35px" viewBox="0 0 39 35" version="1.1">
<g id="surface1">
<path style=" stroke:none;fill-rule:nonzero;fill:rgb(28.235294%,41.568627%,68.235294%);fill-opacity:1;" d="M 0 25.007812 L 9.386719 25.007812 L 9.386719 27.925781 L 6.695312 27.925781 L 6.695312 34.941406 L 2.785156 34.941406 L 2.785156 27.929688 L 0 27.929688 Z M 16.800781 9.492188 C 17.039062 7.847656 17.003906 6.988281 14.648438 7.121094 C 11.425781 7.242188 8.222656 7.671875 5.078125 8.402344 C 4.949219 8.933594 4.886719 9.476562 4.882812 10.023438 C 4.882812 11.914062 5.640625 13.742188 7.0625 15.316406 C 8.535156 16.859375 10.339844 18.03125 12.332031 18.742188 C 13.132812 19.042969 13.949219 19.285156 14.785156 19.472656 C 14.941406 18.824219 15.953125 14.605469 16.75 9.742188 L 16.785156 9.488281 Z M 33.9375 8.402344 C 30.800781 7.671875 27.601562 7.242188 24.382812 7.121094 C 22.019531 6.988281 21.992188 7.839844 22.21875 9.492188 L 22.273438 9.867188 C 23.074219 14.652344 24.058594 18.773438 24.230469 19.476562 C 29.976562 18.132812 34.125 14.410156 34.125 10.03125 C 34.121094 9.484375 34.058594 8.941406 33.933594 8.410156 Z M 33.324219 6.753906 C 32.957031 6.019531 32.488281 5.339844 31.9375 4.738281 C 30.46875 3.195312 28.671875 2.023438 26.683594 1.3125 C 24.382812 0.46875 21.957031 0.0390625 19.511719 0.0546875 C 17.070312 0.0390625 14.640625 0.464844 12.34375 1.3125 C 10.351562 2.023438 8.546875 3.195312 7.074219 4.738281 C 6.523438 5.339844 6.058594 6.019531 5.6875 6.753906 C 8.492188 6.0625 13.304688 5.132812 17.75 5.046875 C 18.097656 5.011719 18.441406 5.15625 18.667969 5.433594 C 18.90625 5.738281 18.890625 6.835938 18.882812 7.324219 L 18.757812 19.996094 C 19.007812 19.996094 19.257812 20.011719 19.511719 20.011719 C 19.765625 20.011719 20.019531 20.011719 20.269531 20.011719 L 20.144531 7.335938 C 20.144531 6.847656 20.117188 5.75 20.355469 5.445312 C 20.578125 5.171875 20.917969 5.019531 21.265625 5.046875 C 25.707031 5.144531 30.515625 6.058594 33.324219 6.753906 Z M 33.199219 29.023438 L 31.21875 34.945312 L 27.464844 34.945312 L 31.148438 25.007812 L 35.230469 25.007812 L 39.003906 34.945312 L 35.195312 34.945312 Z M 19.042969 25.007812 L 28.441406 25.007812 L 28.441406 27.925781 L 25.746094 27.925781 L 25.746094 34.941406 L 21.835938 34.941406 L 21.835938 27.929688 L 19.042969 27.929688 Z M 14.140625 29.023438 L 12.167969 34.945312 L 8.410156 34.945312 L 12.09375 25.007812 L 16.1875 25.007812 L 19.960938 34.945312 L 16.152344 34.945312 Z M 14.140625 29.023438 "/>
</g>
</svg>
