<svg width="54" height="54" viewBox="0 0 54 54" fill="none" xmlns="http://www.w3.org/2000/svg">
<rect x="36" y="37" width="9" height="8" fill="#787878"/>
<rect x="15" y="20" width="27" height="17" fill="#EE2A7B"/>
<path fill-rule="evenodd" clip-rule="evenodd" d="M45.8174 43.8174V27.3407C45.8174 24.8047 45.3192 22.4499 44.3229 20.2762C43.4172 18.0119 42.1039 16.0646 40.3831 14.4343C38.7528 12.7134 36.8055 11.4001 34.5412 10.4944C32.3675 9.49814 30.0126 9 27.4766 9C24.9406 9 22.5405 9.49814 20.2762 10.4944C18.0119 11.4001 16.0193 12.7134 14.2984 14.4343C12.6682 16.0646 11.3549 18.0119 10.3586 20.2762C9.45286 22.4499 9 24.8047 9 27.3407C9 29.8767 9.45286 32.2769 10.3586 34.5412C11.3549 36.8055 12.6682 38.7981 14.2984 40.5189C16.0193 42.1492 18.0119 43.4625 20.2762 44.4588C22.5405 45.3645 24.9406 45.8174 27.4766 45.8174H43.8174C44.9219 45.8174 45.8174 44.9219 45.8174 43.8174ZM43.9699 40.3056C43.97 39.4171 42.8979 38.9698 42.2665 39.5948L39.6362 42.1981C39.0012 42.8265 39.4463 43.9088 40.3397 43.9088H42.9699C43.5222 43.9088 43.9699 43.4611 43.9699 42.9088L43.9699 40.3056Z" fill="url(#paint0_linear_19_181)"/>
<path d="M44.3229 20.2762L44.0905 20.3691L44.0957 20.3803L44.3229 20.2762ZM40.3831 14.4343L40.2013 14.6065L40.2111 14.6158L40.3831 14.4343ZM34.5412 10.4944L34.4369 10.722L34.4484 10.7265L34.5412 10.4944ZM20.2762 10.4944L20.3691 10.7267L20.3769 10.7233L20.2762 10.4944ZM14.2984 14.4343L14.1217 14.2575L14.1217 14.2575L14.2984 14.4343ZM10.3586 20.2762L10.1297 20.1755L10.1278 20.18L10.3586 20.2762ZM10.3586 34.5412L10.1263 34.6341L10.1297 34.6419L10.3586 34.5412ZM14.2984 40.5189L14.1167 40.6911L14.1265 40.7004L14.2984 40.5189ZM20.2762 44.4588L20.1754 44.6878L20.1833 44.6909L20.2762 44.4588ZM42.2665 39.5948L42.0906 39.4171L42.0906 39.4171L42.2665 39.5948ZM43.9699 40.3056L44.2199 40.3056L44.2199 40.3056L43.9699 40.3056ZM39.6362 42.1981L39.8121 42.3758L39.8121 42.3758L39.6362 42.1981ZM43.9699 42.9088L44.2199 42.9088L44.2199 42.9088L43.9699 42.9088ZM45.5674 27.3407V43.8174H46.0674V27.3407H45.5674ZM44.0957 20.3803C45.0761 22.5194 45.5674 24.8385 45.5674 27.3407H46.0674C46.0674 24.771 45.5624 22.3804 44.5502 20.172L44.0957 20.3803ZM40.2111 14.6158C41.905 16.2205 43.1981 18.1373 44.0908 20.369L44.5551 20.1833C43.6363 17.8865 42.3029 15.9087 40.555 14.2528L40.2111 14.6158ZM34.4484 10.7265C36.6801 11.6192 38.5969 12.9124 40.2016 14.6062L40.5646 14.2624C38.9087 12.5145 36.9309 11.1811 34.6341 10.2623L34.4484 10.7265ZM27.4766 9.25C29.9789 9.25 32.298 9.74129 34.437 10.7217L34.6454 10.2672C32.437 9.255 30.0464 8.75 27.4766 8.75V9.25ZM20.3769 10.7233C22.6086 9.74129 24.9744 9.25 27.4766 9.25V8.75C24.9068 8.75 22.4723 9.25499 20.1755 10.2656L20.3769 10.7233ZM14.4752 14.6111C16.1721 12.9142 18.1361 11.6197 20.369 10.7265L20.1833 10.2623C17.8877 11.1806 15.8665 12.5127 14.1217 14.2575L14.4752 14.6111ZM10.5874 20.3769C11.5721 18.1388 12.8684 16.2179 14.4752 14.6111L14.1217 14.2575C12.4679 15.9113 11.1376 17.8849 10.1297 20.1755L10.5874 20.3769ZM9.25 27.3407C9.25 24.8352 9.69727 22.5133 10.5893 20.3723L10.1278 20.18C9.20844 22.3865 8.75 24.7743 8.75 27.3407H9.25ZM10.5907 34.4484C9.69726 32.2148 9.25 29.8462 9.25 27.3407H8.75C8.75 29.9073 9.20846 32.3391 10.1265 34.6341L10.5907 34.4484ZM14.4799 40.347C12.8702 38.6479 11.5726 36.6797 10.5874 34.4405L10.1297 34.6419C11.1371 36.9313 12.4661 38.9483 14.117 40.6909L14.4799 40.347ZM20.3769 44.23C18.1377 43.2447 16.1695 41.9471 14.4704 40.3374L14.1265 40.7004C15.8691 42.3513 17.8861 43.6803 20.1755 44.6876L20.3769 44.23ZM27.4766 45.5674C24.9711 45.5674 22.6026 45.1201 20.369 44.2267L20.1833 44.6909C22.4783 45.6089 24.9101 46.0674 27.4766 46.0674V45.5674ZM43.8174 45.5674H27.4766V46.0674H43.8174V45.5674ZM45.5674 43.8174C45.5674 44.7839 44.7839 45.5674 43.8174 45.5674V46.0674C45.06 46.0674 46.0674 45.06 46.0674 43.8174H45.5674ZM42.4424 39.7725C42.9159 39.3038 43.7199 39.6392 43.7199 40.3056L44.2199 40.3056C44.22 39.195 42.8799 38.6359 42.0906 39.4171L42.4424 39.7725ZM39.8121 42.3758L42.4424 39.7725L42.0906 39.4171L39.4604 42.0204L39.8121 42.3758ZM40.3397 43.6588C39.6696 43.6588 39.3358 42.8471 39.8121 42.3758L39.4604 42.0204C38.6666 42.8059 39.2229 44.1588 40.3397 44.1588V43.6588ZM42.9699 43.6588H40.3397V44.1588H42.9699V43.6588ZM43.7199 42.9088C43.7199 43.323 43.3841 43.6588 42.9699 43.6588V44.1588C43.6603 44.1588 44.2199 43.5992 44.2199 42.9088L43.7199 42.9088ZM43.7199 40.3056L43.7199 42.9088L44.2199 42.9088L44.2199 40.3056L43.7199 40.3056Z" fill="#787878"/>
<path d="M23.7583 33.3143C23.6227 33.7236 23.2401 34 22.8089 34H20.6793C20.2482 34 19.8655 33.7236 19.73 33.3143L16.5933 23.8397C16.3791 23.1925 16.8609 22.5254 17.5426 22.5254H18.646C19.0971 22.5254 19.4924 22.8274 19.6109 23.2627L21.7657 31.1787C21.7703 31.1954 21.7854 31.207 21.8028 31.207V31.207C21.82 31.207 21.8352 31.1955 21.8398 31.1788L24.0038 23.2617C24.1227 22.8269 24.5177 22.5254 24.9684 22.5254H25.9456C26.6273 22.5254 27.1092 23.1925 26.895 23.8397L23.7583 33.3143Z" fill="#EE2A7B"/>
<path d="M32.6367 24.6738C32.0844 24.6738 31.6367 25.1215 31.6367 25.6738V26.9941C31.6367 27.5464 32.0844 27.9941 32.6367 27.9941H33.502C34.6348 27.9941 35.3086 27.3594 35.3086 26.3438C35.3086 25.3477 34.5957 24.6738 33.4824 24.6738H32.6367ZM32.6367 29.957C32.0844 29.957 31.6367 30.4047 31.6367 30.957V33C31.6367 33.5523 31.189 34 30.6367 34H29.7754C29.2231 34 28.7754 33.5523 28.7754 33V23.5254C28.7754 22.9731 29.2231 22.5254 29.7754 22.5254H33.7754C36.6562 22.5254 38.2285 23.9414 38.2285 26.2852C38.2285 27.3259 37.8382 28.2886 37.1185 28.9416C36.6802 29.3392 36.429 29.9806 36.7072 30.5029L37.7871 32.5298C38.1419 33.1959 37.6592 34 36.9045 34H35.9617C35.585 34 35.2403 33.7883 35.0699 33.4524L33.5747 30.5047C33.4042 30.1687 33.0595 29.957 32.6828 29.957H32.6367Z" fill="#EE2A7B"/>
<defs>
<linearGradient id="paint0_linear_19_181" x1="28" y1="28" x2="45" y2="45" gradientUnits="userSpaceOnUse">
<stop stop-color="white"/>
<stop offset="1" stop-color="#E2E2E6"/>
</linearGradient>
</defs>
</svg>
